# xmcd
#
# Track frame offsets:
#	150
#	20598
#	39926
#	55809
#	68217
#	85096
#	106940
#	119339
#	133604
#	148065
#	160762
#	176734
#	193693
#	217301
#	230184
#
# Disc length: 3275 seconds
#
# Revision: 2
# Processed by: cddbd v1.5.1PL2 Copyright (c) Steve Scherf et al.
# Submitted via: EasyCDDAExtractor 9.1.0.1
#
DISCID=dc0cc90f
DTITLE=Martinho da Vila - Brasilatinidade
DYEAR=2005
DGENRE=Samba
TTITLE0=Quando essa onda passar
TTITLE1=Sob a luz do candeeiro
TTITLE2=Tempero do prazer
TTITLE3=Fetiche
TTITLE4=Dar e receber
TTITLE5=quem tá com Deus não tem medo
TTITLE6=Roda de samba no ceu
TTITLE7=Uma casa nos ares
TTITLE8=Suco de maracuja
TTITLE9=Um dia tu veras
TTITLE10=Mirra, ouro ,incenso
TTITLE11=Eu não me canso de dizer
TTITLE12=Um beijo adeus
TTITLE13=Dentre centenas de mastros
TTITLE14=Feitiço da vila
EXTD=
EXTT0=
EXTT1=
EXTT2=
EXTT3=
EXTT4=
EXTT5=
EXTT6=
EXTT7=
EXTT8=
EXTT9=
EXTT10=
EXTT11=
EXTT12=
EXTT13=
EXTT14=
PLAYORDER=
